<svg width="181" height="23" viewBox="0 0 181 23" fill="none" xmlns="http://www.w3.org/2000/svg">
<path d="M139.136 14.9422C139.136 17.2994 138.569 19.1851 137.352 20.5208C136.136 21.8565 134.515 22.5636 132.406 22.5636C131.109 22.5636 129.893 22.2494 128.92 21.6208C127.217 20.5994 125.758 18.3994 125.758 14.9422C125.758 12.5851 126.325 10.6994 127.542 9.36364C128.758 8.02793 130.379 7.32079 132.488 7.32079C134.596 7.32079 136.217 8.02793 137.352 9.36364C138.488 10.6994 139.136 12.5851 139.136 14.9422ZM127.217 14.9422C127.217 16.9851 127.704 18.5565 128.596 19.6565C129.488 20.7565 130.785 21.3851 132.488 21.3851C134.19 21.3851 135.488 20.8351 136.379 19.6565C137.271 18.5565 137.758 16.9851 137.758 14.9422C137.758 12.8994 137.271 11.3279 136.379 10.2279C135.488 9.12793 134.19 8.57793 132.488 8.57793C130.785 8.57793 129.488 9.12793 128.596 10.2279C127.623 11.3279 127.217 12.8994 127.217 14.9422Z" fill="white"/>
<path d="M31.6201 4.25666C32.0255 3.70666 32.6741 3.39238 33.566 3.39238C34.1336 3.39238 34.8633 3.54952 35.6741 3.78524C35.7552 3.78524 35.8363 3.78524 35.9174 3.70666L36.4039 2.21381C36.4039 2.13524 36.4039 2.05666 36.3228 1.97809C35.2687 1.66381 34.3768 1.58524 33.6471 1.58524C30.3228 1.58524 28.7012 3.39238 28.7012 7.08524V21.7781V22.7209C28.7012 22.7995 28.7823 22.8781 28.8633 22.8781H29.6741C30.4039 22.8781 30.9714 22.3281 30.9714 21.6209V9.91381C30.9714 9.83524 31.0525 9.75666 31.1336 9.75666H34.7012C34.7823 9.75666 34.8633 9.67809 34.8633 9.59952V8.18524C34.8633 8.02809 34.7823 7.94952 34.7012 7.94952H31.1336C31.0525 7.94952 30.9714 7.87095 30.9714 7.79238V7.00666C30.9714 5.74952 31.2147 4.88524 31.6201 4.25666Z" fill="white"/>
<path d="M48.3232 7.71368C48.2421 7.71368 48.161 7.79226 48.161 7.87083V17.378C48.161 18.5565 47.8367 19.4994 47.2691 20.128C46.7016 20.7565 45.8097 20.9923 44.5934 20.9923C44.5124 20.9923 43.9448 20.9923 43.9448 20.9923C42.7286 20.9923 41.8367 20.678 41.2691 20.128C40.7016 19.4994 40.3772 18.6351 40.3772 17.378V9.0494C40.3772 8.34226 39.8097 7.71368 38.9988 7.71368H38.188C38.107 7.71368 38.0259 7.79226 38.0259 7.87083V17.4565C38.0259 19.3423 38.5124 20.7565 39.4043 21.6208C40.4583 22.5637 41.9178 22.878 43.6205 22.878C43.9448 22.878 44.5124 22.878 44.9178 22.878C46.7826 22.878 48.161 22.4851 49.134 21.6208C50.107 20.7565 50.5124 19.4208 50.5124 17.4565V7.87083C50.5124 7.79226 50.4313 7.71368 50.3502 7.71368H48.3232V7.71368Z" fill="white"/>
<path d="M76.6218 7.71368C76.5407 7.71368 76.4596 7.79226 76.4596 7.87083V17.378C76.4596 18.5565 76.1353 19.4994 75.5677 20.128C75.0001 20.7565 74.1082 20.9923 72.892 20.9923C72.8109 20.9923 72.2434 20.9923 72.2434 20.9923C71.0272 20.9923 70.1353 20.678 69.5677 20.128C69.0001 19.4994 68.6758 18.6351 68.6758 17.378V9.0494C68.6758 8.34226 68.1082 7.71368 67.2974 7.71368H66.4866C66.4055 7.71368 66.3245 7.79226 66.3245 7.87083V17.4565C66.3245 19.3423 66.8109 20.7565 67.7028 21.6208C68.5947 22.4065 69.9731 22.878 71.9191 22.878C72.2434 22.878 72.8109 22.878 73.2164 22.878C75.0812 22.878 76.5407 22.4065 77.4326 21.6208C78.4055 20.7565 78.8109 19.4208 78.8109 17.4565V7.87083C78.8109 7.79226 78.7299 7.71368 78.6488 7.71368H76.6218V7.71368Z" fill="white"/>
<path d="M60.0003 20.9919C59.2706 20.9919 58.6219 20.7562 58.2165 20.2848C57.8111 19.8134 57.5679 19.1062 57.5679 18.2419V9.59907C57.5679 9.5205 57.649 9.44192 57.73 9.44192H61.8652C61.9463 9.44192 62.0273 9.36335 62.0273 9.28478V7.8705C62.0273 7.79192 61.9463 7.71335 61.8652 7.71335H57.73C57.649 7.71335 57.5679 7.63478 57.5679 7.55621V4.41335C57.5679 4.33478 57.4868 4.25621 57.4057 4.25621H56.4327C55.703 4.25621 55.2976 4.80621 55.2976 5.35621V18.3205C55.2976 19.0276 55.3787 19.7348 55.5409 20.2848C55.8652 21.3062 56.4327 21.9348 57.3246 22.4062C57.9733 22.7205 58.7841 22.8776 59.7571 22.8776C60.1625 22.8776 60.9733 22.8776 62.0273 22.4848C62.4327 22.3276 62.676 21.9348 62.7571 21.6205V20.5205C62.1895 20.6776 60.9733 21.0705 60.0003 20.9919Z" fill="white"/>
<path d="M105.649 11.0921C105.406 10.3063 104.919 9.52063 104.352 8.97063C103.46 8.02777 102.081 7.16348 99.8111 7.16348C96.73 7.16348 95.1894 8.97063 94.8651 9.28491C93.6489 10.6992 93.0002 12.5849 93.0002 15.0206C93.0002 17.3778 93.6489 19.2635 94.9462 20.5992C96.0813 21.7778 97.6219 22.4063 99.4867 22.5635C100.216 22.6421 101.271 22.6421 102.487 22.2492C102.892 22.0921 103.135 21.7778 103.216 21.3849V20.3635C102.162 20.5992 100.946 20.8349 99.6489 20.6778C98.0273 20.4421 97.6219 20.1278 96.73 19.3421C95.8381 18.5563 95.4327 17.1421 95.3516 15.3349H104.757C105.162 15.3349 105.892 15.0992 105.892 13.9206C106.054 12.8206 105.892 11.9563 105.649 11.0921ZM95.5138 13.4492C95.5948 12.8992 95.6759 12.4278 95.8381 11.9563C96.0813 11.2492 96.4057 10.6992 96.8111 10.2278C97.2165 9.83491 97.6219 9.52063 98.1084 9.36348C98.2705 9.28491 98.4327 9.28491 98.5948 9.20634C98.9192 9.12777 99.3246 9.0492 99.73 9.0492C100.135 9.0492 100.541 9.12777 100.865 9.20634C101.514 9.36348 102.081 9.67777 102.487 10.2278C103.135 10.9349 103.46 11.9563 103.46 13.2921C103.46 13.3706 103.379 13.4492 103.298 13.4492H95.5138Z" fill="white"/>
<path d="M90.9714 7.63479C90.8093 7.55622 90.4039 7.39908 89.0255 7.39908C87.566 7.39908 85.8633 7.71336 84.8093 8.65622C83.8363 9.52051 83.4309 10.8562 83.4309 12.8205V22.4062C83.4309 22.4848 83.512 22.5634 83.5931 22.5634H84.566C85.2147 22.5634 85.7012 22.0919 85.7012 21.4634V12.8991C85.7012 11.7205 86.0255 10.7776 86.5931 10.1491C87.1606 9.52051 88.0525 9.28479 89.1877 9.28479C90.485 9.28479 91.6201 9.59908 91.6201 9.59908V8.49908C91.7012 8.02765 91.539 7.87051 90.9714 7.63479Z" fill="white"/>
<path d="M116.594 7.63477C115.296 7.63477 114.242 7.87048 113.35 8.26334C112.458 8.65619 111.81 9.28477 111.242 10.1491H111.08L111.161 8.26334V2.21334C111.161 2.37048 111.161 2.37048 111.161 2.21334C111.161 1.82048 110.837 1.5062 110.431 1.5062H109.864C109.783 1.5062 109.783 1.5062 109.783 1.58477V22.4848H111.161V14.4705C111.161 12.5062 111.567 11.0133 112.458 10.1491C113.269 9.28477 114.648 8.81334 116.431 8.81334C117.81 8.81334 118.783 9.12762 119.431 9.83477C120.08 10.5419 120.404 11.5633 120.404 13.0562V21.9348C120.404 22.2491 120.648 22.5633 121.053 22.5633H121.621C121.702 22.5633 121.702 22.5633 121.702 22.4848V12.9776C121.702 9.44191 119.999 7.63477 116.594 7.63477Z" fill="white"/>
<path d="M162.405 8.89217C161.594 8.02788 160.378 7.63503 158.675 7.63503C157.621 7.63503 156.648 7.87074 155.837 8.34217C155.026 8.8136 154.378 9.44217 153.891 10.3065H153.81C153.162 8.57788 151.621 7.7136 149.189 7.7136C148.297 7.7136 147.405 7.94931 146.675 8.34217C145.864 8.73502 145.297 9.28502 144.891 10.0707H144.81L144.567 8.49931C144.486 8.18502 144.243 8.02788 143.999 8.02788H143.432C143.351 8.02788 143.351 8.02788 143.351 8.10645V22.7207H144.729V14.6279C144.729 12.6636 145.054 11.2493 145.783 10.3065C146.513 9.44217 147.648 8.97074 149.27 8.97074C151.621 8.97074 152.756 10.2279 152.756 12.6636V22.7207H154.135V13.9993C154.135 12.1922 154.54 10.935 155.27 10.0707C155.999 9.20645 157.135 8.8136 158.675 8.8136C159.891 8.8136 160.783 9.12788 161.351 9.83502C161.918 10.4636 162.243 11.5636 162.243 12.9779V22.485C162.243 22.5636 162.243 22.5636 162.324 22.5636H162.891C163.297 22.5636 163.54 22.2493 163.54 21.935V12.9779C163.621 11.0922 163.216 9.75645 162.405 8.89217Z" fill="white"/>
<path d="M178.459 9.12793C177.405 7.94936 176.026 7.32079 174.243 7.32079C172.216 7.32079 170.594 8.02793 169.459 9.44221C168.243 10.8565 167.675 12.7422 167.675 15.0994C167.675 17.4565 168.324 19.3422 169.54 20.5994C170.756 21.9351 172.459 22.5636 174.648 22.5636C175.54 22.5636 176.359 22.5368 177.08 22.4065C177.744 22.2867 178.729 22.0149 179.107 21.8565C179.343 21.758 179.513 21.4636 179.513 21.2279V20.4422C178.702 20.7565 177.81 21.0708 176.999 21.2279C176.27 21.3851 175.621 21.3851 174.729 21.3851C172.945 21.3851 171.567 20.8351 170.675 19.8136C169.702 18.7136 169.216 17.2208 169.216 15.1779H179.432C179.756 15.1779 180.162 15.0208 180.162 14.4708V14.0779C179.999 12.0351 179.513 10.3851 178.459 9.12793ZM169.216 13.9994C169.378 12.2708 169.864 10.9351 170.756 9.99221C171.648 9.04936 172.783 8.57793 174.243 8.57793C175.621 8.57793 176.675 9.04936 177.405 9.99221C178.135 10.9351 178.54 12.2708 178.54 13.9994H169.216Z" fill="white"/>
<path d="M20.6773 19.9705H19.461C19.2989 19.9705 19.1367 20.1276 19.1367 20.2848V21.4633C19.1367 22.2491 19.7854 22.9562 20.6773 22.9562C21.4881 22.9562 22.2178 22.3276 22.2178 21.4633C22.2178 20.6776 21.5692 19.9705 20.6773 19.9705Z" fill="#F94409"/>
<path d="M20.2703 5.12063C20.2703 5.04206 20.2703 5.12063 20.2703 5.12063C20.027 4.88492 19.6216 4.64921 19.3784 4.49206L13.6216 1.50635C13.2973 1.34921 12.973 1.19206 12.5676 1.11349C11.5946 0.799206 10.5405 0.799206 9.56757 1.11349C9.24324 1.19206 8.83784 1.34921 8.51351 1.50635L2.83784 4.49206C2.51351 4.64921 2.18919 4.88492 1.94595 5.12063C0.72973 6.06349 0 7.55635 0 9.0492V17.6921C0 20.5992 2.43243 22.8778 5.35135 22.8778H15.4054C16.2162 22.8778 16.9459 22.2492 16.9459 21.3849V20.2063C16.9459 20.0492 16.7838 19.8921 16.6216 19.8921H5.35135C4.05405 19.8921 3 18.8706 3 17.6135V8.97063C3 8.10635 3.48649 7.39921 4.21622 7.00635L10.1351 4.02063C10.7838 3.78492 11.4324 3.78492 12 4.02063L17.9189 7.08492C18.6486 7.47778 19.1351 8.26349 19.1351 9.0492V16.5921C19.1351 17.3778 19.7838 18.0849 20.6757 18.0849C21.4865 18.0849 22.2162 17.4563 22.2162 16.5921V9.0492C22.2162 7.55635 21.4865 6.06349 20.2703 5.12063Z" fill="#F94409"/>
</svg>
