<svg width="151" height="19" viewBox="0 0 151 19" fill="none" xmlns="http://www.w3.org/2000/svg">
<path d="M115.947 11.7759C115.947 13.7402 115.474 15.3116 114.461 16.4247C113.447 17.5378 112.096 18.1271 110.339 18.1271C109.258 18.1271 108.244 17.8652 107.434 17.3414C106.015 16.4902 104.798 14.6569 104.798 11.7759C104.798 9.81162 105.271 8.24019 106.285 7.12709C107.298 6.014 108.65 5.42471 110.406 5.42471C112.163 5.42471 113.515 6.014 114.461 7.12709C115.406 8.24019 115.947 9.81162 115.947 11.7759ZM106.015 11.7759C106.015 13.4783 106.42 14.7878 107.163 15.7045C107.907 16.6211 108.988 17.145 110.406 17.145C111.825 17.145 112.907 16.6866 113.65 15.7045C114.393 14.7878 114.798 13.4783 114.798 11.7759C114.798 10.0735 114.393 8.764 113.65 7.84733C112.907 6.93067 111.825 6.47233 110.406 6.47233C108.988 6.47233 107.907 6.93067 107.163 7.84733C106.352 8.764 106.015 10.0735 106.015 11.7759Z" fill="#032B47"/>
<path d="M26.3502 2.87127C26.6881 2.41294 27.2286 2.15103 27.9718 2.15103C28.4448 2.15103 29.0529 2.28199 29.7286 2.47841C29.7962 2.47841 29.8637 2.47841 29.9313 2.41294L30.3367 1.16889C30.3367 1.10341 30.3367 1.03794 30.2691 0.972461C29.3908 0.710557 28.6475 0.645081 28.0394 0.645081C25.2691 0.645081 23.9178 2.15103 23.9178 5.22841V17.4725V18.2582C23.9178 18.3237 23.9854 18.3891 24.0529 18.3891H24.7286C25.3367 18.3891 25.8097 17.9308 25.8097 17.3415V7.58556C25.8097 7.52008 25.8772 7.4546 25.9448 7.4546H28.9178C28.9854 7.4546 29.0529 7.38913 29.0529 7.32365V6.14508C29.0529 6.01413 28.9854 5.94865 28.9178 5.94865H25.9448C25.8772 5.94865 25.8097 5.88318 25.8097 5.8177V5.16294C25.8097 4.11532 26.0124 3.39508 26.3502 2.87127Z" fill="#032B47"/>
<path d="M40.2691 5.75211C40.2016 5.75211 40.134 5.81758 40.134 5.88306V13.8057C40.134 14.7878 39.8637 15.5735 39.3907 16.0973C38.9178 16.6212 38.1745 16.8176 37.161 16.8176C37.0935 16.8176 36.6205 16.8176 36.6205 16.8176C35.607 16.8176 34.8637 16.5557 34.3908 16.0973C33.9178 15.5735 33.6475 14.8533 33.6475 13.8057V6.8652C33.6475 6.27592 33.1745 5.75211 32.4989 5.75211H31.8232C31.7556 5.75211 31.688 5.81758 31.688 5.88306V13.8712C31.688 15.4426 32.0935 16.6212 32.8367 17.3414C33.7151 18.1271 34.9313 18.389 36.3502 18.389C36.6205 18.389 37.0935 18.389 37.4313 18.389C38.9853 18.389 40.134 18.0616 40.9448 17.3414C41.7556 16.6212 42.0935 15.5081 42.0935 13.8712V5.88306C42.0935 5.81758 42.0259 5.75211 41.9583 5.75211H40.2691V5.75211Z" fill="#032B47"/>
<path d="M63.8512 5.75211C63.7837 5.75211 63.7161 5.81758 63.7161 5.88306V13.8057C63.7161 14.7878 63.4458 15.5735 62.9728 16.0973C62.4999 16.6212 61.7566 16.8176 60.7431 16.8176C60.6755 16.8176 60.2026 16.8176 60.2026 16.8176C59.1891 16.8176 58.4458 16.5557 57.9728 16.0973C57.4999 15.5735 57.2296 14.8533 57.2296 13.8057V6.8652C57.2296 6.27592 56.7566 5.75211 56.081 5.75211H55.4053C55.3377 5.75211 55.2701 5.81758 55.2701 5.88306V13.8712C55.2701 15.4426 55.6755 16.6212 56.4188 17.3414C57.162 17.9962 58.3107 18.389 59.9323 18.389C60.2026 18.389 60.6755 18.389 61.0134 18.389C62.5674 18.389 63.7837 17.9962 64.5269 17.3414C65.3377 16.6212 65.6755 15.5081 65.6755 13.8712V5.88306C65.6755 5.81758 65.608 5.75211 65.5404 5.75211H63.8512V5.75211Z" fill="#032B47"/>
<path d="M50.0002 16.8173C49.3921 16.8173 48.8515 16.6209 48.5137 16.228C48.1758 15.8352 47.9731 15.2459 47.9731 14.5257V7.32328C47.9731 7.2578 48.0407 7.19232 48.1083 7.19232H51.5542C51.6218 7.19232 51.6894 7.12685 51.6894 7.06137V5.8828C51.6894 5.81732 51.6218 5.75185 51.5542 5.75185H48.1083C48.0407 5.75185 47.9731 5.68637 47.9731 5.6209V3.00185C47.9731 2.93637 47.9056 2.8709 47.838 2.8709H47.0272C46.4191 2.8709 46.0812 3.32923 46.0812 3.78756V14.5911C46.0812 15.1804 46.1488 15.7697 46.2839 16.228C46.5542 17.0792 47.0272 17.603 47.7704 17.9959C48.311 18.2578 48.9866 18.3888 49.7975 18.3888C50.1353 18.3888 50.811 18.3888 51.6894 18.0614C52.0272 17.9304 52.2299 17.603 52.2975 17.3411V16.4245C51.8245 16.5554 50.811 16.8828 50.0002 16.8173Z" fill="#032B47"/>
<path d="M88.0407 8.56745C87.838 7.91269 87.4326 7.25793 86.9596 6.79959C86.2163 6.01388 85.0677 5.29364 83.1758 5.29364C80.6082 5.29364 79.3244 6.79959 79.0542 7.0615C78.0407 8.24007 77.5001 9.8115 77.5001 11.8413C77.5001 13.8055 78.0407 15.377 79.1217 16.4901C80.0677 17.4722 81.3515 17.996 82.9055 18.127C83.5136 18.1925 84.392 18.1925 85.4055 17.8651C85.7434 17.7341 85.9461 17.4722 86.0136 17.1448V16.2936C85.1353 16.4901 84.1217 16.6865 83.0407 16.5555C81.6893 16.3591 81.3515 16.0972 80.6082 15.4424C79.865 14.7877 79.5271 13.6091 79.4596 12.1032H87.2974C87.6353 12.1032 88.2434 11.9067 88.2434 10.9246C88.3785 10.0079 88.2434 9.28769 88.0407 8.56745ZM79.5947 10.5317C79.6623 10.0734 79.7299 9.68055 79.865 9.28769C80.0677 8.6984 80.338 8.24007 80.6758 7.84721C81.0136 7.51983 81.3515 7.25793 81.7569 7.12697C81.892 7.0615 82.0271 7.0615 82.1623 6.99602C82.4326 6.93055 82.7704 6.86507 83.1082 6.86507C83.4461 6.86507 83.7839 6.93055 84.0542 6.99602C84.5947 7.12697 85.0677 7.38888 85.4055 7.84721C85.9461 8.4365 86.2163 9.28769 86.2163 10.4008C86.2163 10.4663 86.1488 10.5317 86.0812 10.5317H79.5947Z" fill="#032B47"/>
<path d="M75.8098 5.68636C75.6746 5.62088 75.3368 5.48993 74.1882 5.48993C72.9719 5.48993 71.553 5.75183 70.6746 6.53755C69.8638 7.25779 69.526 8.37088 69.526 10.0078V17.9959C69.526 18.0614 69.5936 18.1268 69.6611 18.1268H70.4719C71.0125 18.1268 71.4179 17.734 71.4179 17.2102V10.0733C71.4179 9.09112 71.6882 8.30541 72.1611 7.7816C72.6341 7.25779 73.3773 7.06136 74.3233 7.06136C75.4044 7.06136 76.3503 7.32326 76.3503 7.32326V6.4066C76.4179 6.01374 76.2828 5.88279 75.8098 5.68636Z" fill="#032B47"/>
<path d="M97.161 5.68638C96.0799 5.68638 95.2016 5.88281 94.4583 6.21019C93.7151 6.53757 93.1745 7.06138 92.7016 7.78162H92.5664L92.634 6.21019V1.16852C92.634 1.29948 92.634 1.29948 92.634 1.16852C92.634 0.841144 92.3637 0.579239 92.0259 0.579239H91.5529C91.4854 0.579239 91.4854 0.579239 91.4854 0.644715V18.0614H92.634V11.3828C92.634 9.74591 92.9718 8.50186 93.7151 7.78162C94.3908 7.06138 95.5394 6.66853 97.0259 6.66853C98.1745 6.66853 98.9854 6.93043 99.5259 7.51972C100.066 8.109 100.337 8.96019 100.337 10.2042V17.6031C100.337 17.865 100.539 18.1269 100.877 18.1269H101.35C101.418 18.1269 101.418 18.1269 101.418 18.0614V10.1388C101.418 7.19233 99.9989 5.68638 97.161 5.68638Z" fill="#032B47"/>
<path d="M135.338 6.73419C134.662 6.01395 133.648 5.68657 132.23 5.68657C131.351 5.68657 130.54 5.883 129.865 6.27585C129.189 6.66871 128.648 7.19252 128.243 7.91276H128.176C127.635 6.47228 126.351 5.75205 124.324 5.75205C123.581 5.75205 122.838 5.94847 122.23 6.27585C121.554 6.60324 121.081 7.06157 120.743 7.71633H120.676L120.473 6.40681C120.405 6.1449 120.203 6.01395 120 6.01395H119.527C119.459 6.01395 119.459 6.01395 119.459 6.07943V18.258H120.608V11.5139C120.608 9.87705 120.878 8.69847 121.486 7.91276C122.094 7.19252 123.04 6.79966 124.392 6.79966C126.351 6.79966 127.297 7.84728 127.297 9.87705V18.258H128.446V10.9901C128.446 9.48419 128.784 8.43657 129.392 7.71633C130 6.99609 130.946 6.66871 132.23 6.66871C133.243 6.66871 133.986 6.93062 134.459 7.5199C134.932 8.04371 135.203 8.96038 135.203 10.1389V18.0616C135.203 18.127 135.203 18.127 135.27 18.127H135.743C136.081 18.127 136.284 17.8651 136.284 17.6032V10.1389C136.351 8.56752 136.013 7.45443 135.338 6.73419Z" fill="#032B47"/>
<path d="M148.716 6.93067C147.838 5.94852 146.689 5.42471 145.203 5.42471C143.513 5.42471 142.162 6.014 141.216 7.19257C140.203 8.37114 139.73 9.94257 139.73 11.9069C139.73 13.8711 140.27 15.4426 141.284 16.4902C142.297 17.6033 143.716 18.1271 145.54 18.1271C146.284 18.1271 146.966 18.1047 147.567 17.9961C148.121 17.8963 148.941 17.6698 149.257 17.5378C149.453 17.4557 149.594 17.2104 149.594 17.014V16.3592C148.919 16.6211 148.176 16.883 147.5 17.014C146.892 17.145 146.351 17.145 145.608 17.145C144.121 17.145 142.973 16.6866 142.23 15.8354C141.419 14.9188 141.013 13.6747 141.013 11.9723H149.527C149.797 11.9723 150.135 11.8414 150.135 11.383V11.0557C150 9.35328 149.594 7.97828 148.716 6.93067ZM141.013 10.9902C141.148 9.54971 141.554 8.43662 142.297 7.6509C143.04 6.86519 143.986 6.47233 145.203 6.47233C146.351 6.47233 147.23 6.86519 147.838 7.6509C148.446 8.43662 148.784 9.54971 148.784 10.9902H141.013Z" fill="#032B47"/>
<path d="M17.2308 15.9662H16.2173C16.0822 15.9662 15.947 16.0971 15.947 16.2281V17.2102C15.947 17.865 16.4876 18.4543 17.2308 18.4543C17.9065 18.4543 18.5146 17.9304 18.5146 17.2102C18.5146 16.5554 17.974 15.9662 17.2308 15.9662Z" fill="#F94409"/>
<path d="M16.8919 3.59127C16.8919 3.5258 16.8919 3.59127 16.8919 3.59127C16.6892 3.39484 16.3514 3.19841 16.1486 3.06746L11.3514 0.579367C11.0811 0.448414 10.8108 0.317462 10.473 0.251986C9.66216 -0.00991894 8.78378 -0.00991894 7.97297 0.251986C7.7027 0.317462 7.36487 0.448414 7.09459 0.579367L2.36486 3.06746C2.09459 3.19841 1.82432 3.39484 1.62162 3.59127C0.608108 4.37699 0 5.62103 0 6.86508V14.0675C0 16.4901 2.02703 18.3889 4.45946 18.3889H12.8378C13.5135 18.3889 14.1216 17.8651 14.1216 17.1448V16.1627C14.1216 16.0317 13.9865 15.9008 13.8514 15.9008H4.45946C3.37838 15.9008 2.5 15.0496 2.5 14.002V6.79961C2.5 6.07937 2.90541 5.49008 3.51351 5.1627L8.44595 2.6746C8.98649 2.47818 9.52703 2.47818 10 2.6746L14.9324 5.22818C15.5405 5.55556 15.9459 6.21032 15.9459 6.86508V13.1508C15.9459 13.8056 16.4865 14.3948 17.2297 14.3948C17.9054 14.3948 18.5135 13.871 18.5135 13.1508V6.86508C18.5135 5.62103 17.9054 4.37699 16.8919 3.59127Z" fill="#F94409"/>
</svg>
